<svg width="48" height="48" viewBox="18 8 44 44" fill="none" xmlns="http://www.w3.org/2000/svg">
  <circle cx="40" cy="32" r="14" fill="#E6A040" opacity="0.15" />
  <path d="M40 12 L43 26 L56 20 L46 30 L58 32 L46 34 L56 44 L43 38 L40 52 L37 38 L24 44 L34 34 L22 32 L34 30 L24 20 L37 26 Z" fill="#C77B1A" />
  <path d="M40 22 L42 30 L48 26 L44 32 L50 32 L44 34 L48 38 L42 34 L40 42 L38 34 L32 38 L36 34 L30 32 L36 32 L32 26 L38 30 Z" fill="#E6A040" opacity="0.8" />
  <circle cx="40" cy="32" r="4" fill="#FFFAF0" />
  <circle cx="40" cy="32" r="2.5" fill="#E6A040" opacity="0.6" />
</svg>
